<?xml version="1.0" encoding="utf-8"?>
<!-- Generator: Adobe Illustrator 12.0.0, SVG Export Plug-In . SVG Version: 6.00 Build 51448)  -->
<!DOCTYPE svg PUBLIC "-//W3C//DTD SVG 1.1//EN" "http://www.w3.org/Graphics/SVG/1.1/DTD/svg11.dtd" [
	<!ENTITY ns_svg "http://www.w3.org/2000/svg">
	<!ENTITY ns_xlink "http://www.w3.org/1999/xlink">
]>
<svg  version="1.1" id="Layer_1" xmlns="&ns_svg;" xmlns:xlink="&ns_xlink;" width="195.626" height="223.755"
	 viewBox="0 0 195.626 223.755" overflow="visible" enable-background="new 0 0 195.626 223.755" xml:space="preserve">
<g>
	<path fill="#D9954B" d="M51.161,0.012C51.133-0.006,51.14-0.002,51.161,0.012L51.161,0.012z"/>
</g>
<g>
	<path fill="#F37A70" d="M183.386,161.162c-2.742,0.443-6.888,4.545-5.761,9.321c0,0,1.645-1.184,4.095-1.763
		c3.771-0.89,6.945,7.083,7.107,12.122c0.802,24.756-18.774,30.637-32.034,33.767c-6.221,1.468-8.776,0.479-8.776,0.479
		s-0.055-4.166-5.446-5.083c-5.391-0.917-15.44-1.331-17.176-8.684c-1.335-5.656,4.632-5.672,4.632-5.672s-11.426-2.829-10.01,7.339
		c0.572,4.111,2.733,6.52,2.733,6.52s-8.62-5-12.374-12.704c2.147-1.252,6.101-5.284,5.1-11.366
		c-1.826-11.113,6.117-16.669,8.662-17.27s6.925-1.436,7.859,2.523c0.935,3.96-3.878,3.801-3.878,3.801s1.571,2.019,2.891,1.707
		c1.319-0.312,4.485-1.656,3.35-6.463c-1.513-6.41-6.438-7.039-11.34-5.882c-4.902,1.157-7.089,4.957-7.089,4.957
		c0.547-2.318-0.343-6.089-0.343-6.089c-1.423,0.651-2.523,1.619-3.382,2.664c2.551-5.125,7.69-12.053,17.686-15.436
		c16.941-5.733,25.937,5.537,27.821,11.103c1.883,5.565,0.024,9.739-3.584,10.959c-3.608,1.222-4.951-2.141-4.951-2.141
		s-0.513,8.15,6.336,5.832c6.85-2.318,6.733-9.914,4.953-15.174c-1.78-5.26-6.025-9.141-9.094-10.555
		c0,0,12.281,2.046,17.684,18.009c5.403,15.962-5.049,25.567-11.574,27.435c-5.835,1.67-11.532,0.972-13.25-4.104
		c-1.719-5.077,2.517-7.669,2.517-7.669s-9.159,1.94-7.775,9.857c1.39,7.95,9.742,10.652,20.266,6.91
		c11.925-4.24,17.684-17.641,12.053-34.276s-23.188-25.008-42.148-18.591c-13.806,4.673-18.468,14.668-19.984,19.76
		c-0.551-2.873-1.57-5.579-1.57-5.579c-2.739,1.044-4.229,3.585-4.229,3.585c-2.226-11.118-7.94-14.247-13.879-12.845
		s-5.238,5.216-4.815,7.008c0.423,1.791,3.308,2.205,3.308,2.205c-2.894-5.09,0.167-5.613,1.016-5.813
		c0.849-0.2,6.955-0.049,8.757,7.586c2.536,10.746-1.087,16.477,0.738,24.207c1.963,8.32,6.666,9.682,9.358,9.703
		c1.27,2.563,4.072,7.172,8.989,10.843c-0.739,0.012-1.501,0.071-2.292,0.257c-0.134,0.032-0.267,0.07-0.401,0.105
		c-4.806-3.416-20.2-14.496-26.863-21.018c0.676-1.036,1.299-2.826,0.008-5.202c-1.354-2.491-6.957-3.897-6.854-8.102
		c0.103-4.203,4.356-4.312,4.356-4.312s-2.858-2.41-5.78-1.721c-2.16,0.51-4.466,2.907-4.523,6.496
		c-4.148-4.237-11.18-8.92-21.09-8.41c-13.734,0.707-24.067,9.093-23.291,24.183c0.074,1.432,0.282,2.738,0.552,3.98
		c-3.964,2.418-8.202,4.171-13.117,4.425c-11.219,0.577-15.477-6.769-15.656-10.25c-0.18-3.482,1.011-6.744,4.009-6.898
		c2.999-0.155,6.268,6.854,11.008,6.61c2.128-0.109,5.522-0.09,5.265-5.121c-0.203-3.933-4.572-4.031-4.572-4.031
		c3.495,1.954,3.603,5.924,0.797,6.068c-2.805,0.145-5.581-6.694-10.031-6.466c-4.449,0.229-8.628,3.838-8.345,9.352
		c0.284,5.514,5.345,13.4,18.016,12.747c4.666-0.24,9.003-1.997,13.156-4.432c3.299,10.25,13.292,13.352,19.967,13.007
		c7.835-0.403,13.685-5.456,13.361-11.743c-0.324-6.288-3.59-7.575-6.396-7.43c-2.805,0.144-3.479,2.118-3.479,2.118
		c4.637-0.335,5.16,2.257,5.293,4.869c0.135,2.61-2.57,8.472-9.438,8.825c-8.444,0.435-15.149-3.897-17.528-10.733
		c10.277-6.546,19.505-16.62,29.865-17.152c2.566-0.132,4.608-0.02,6.226,0.199c-3.144,0.777-5.287,2.831-3.714,10.327
		c0,0,1.196-3.367,4.683-4.19c3.351-0.791,9.197,9.759,15.582,4.691c3.96,3.451,17.715,15.277,25.872,20.269
		c-2.999,1.454-5.076,4.058-3.268,8.393c2.292,5.496,8.145,5.84,8.145,5.84s-2.425-2.215-3.354-5.777
		c-0.7-2.688,2.27-3.194,3.892-2.909c7.407,1.304,15.666,9.027,26.18,6.359c3.756-0.952,4.602-3.275,4.602-3.275
		s5.156,0.698,11.846-0.407c18.709-3.089,38.163-15.111,35.927-40.325C194.76,169.639,190.543,160.004,183.386,161.162z
		 M72.782,178.269c-1.754-0.898-4.823-1.858-9.738-1.605c-12.844,0.661-21.088,10.299-30.63,16.672
		c-0.18-0.861-0.315-1.744-0.363-2.665c-0.488-9.479,4.46-21.371,21.355-22.24c10.052-0.517,17.604,5.12,21.379,8.739
		c0.142,0.566,0.323,1.148,0.579,1.753C75.364,178.924,74.303,178.479,72.782,178.269z"/>
</g>
</svg>
