<?xml version="1.0" encoding="utf-8"?>
<!-- Generator: Adobe Illustrator 12.0.0, SVG Export Plug-In . SVG Version: 6.00 Build 51448)  -->
<!DOCTYPE svg PUBLIC "-//W3C//DTD SVG 1.1//EN" "http://www.w3.org/Graphics/SVG/1.1/DTD/svg11.dtd" [
	<!ENTITY ns_svg "http://www.w3.org/2000/svg">
	<!ENTITY ns_xlink "http://www.w3.org/1999/xlink">
]>
<svg  version="1.1" id="Layer_1" xmlns="&ns_svg;" xmlns:xlink="&ns_xlink;" width="364.41" height="212.59"
	 viewBox="0 0 364.41 212.59" overflow="visible" enable-background="new 0 0 364.41 212.59" xml:space="preserve">
<g>
	<path fill="#D9954B" d="M0.019,0.012C-0.009-0.006-0.002-0.002,0.019,0.012L0.019,0.012z"/>
</g>
<g>
	<path fill="#D68019" d="M347.632,171.445c0,0-0.2,1.797,3.795,1.797c3.995,0,4.894-3.396,4.593-5.792
		c-0.297-2.378-2.197-4.594-5.592-4.594s-7.79,1.598-7.79,8.788c0,7.191,6.392,8.789,9.986,8.789
		c4.594,0,11.784-1.997,11.784-14.581c0-12.583-16.178-16.977-23.967-16.977c-22.271,0-29.161,16.977-40.347,16.977
		c-5.792,0-5.792-2.996-5.792-5.193s3.596-2.996,5.193-1.198c0,0,0.6-6.392-4.194-6.792c-5.573-0.465-7.59,2.896-6.991,8.189
		c0.562,4.962,3.396,8.588,11.584,8.588c10.786,0,23.169-16.727,33.755-16.727l0,0c-12.683,2.097-36.052,56.424-67.81,56.424
		c-25.166,0-31.458-25.466-31.458-31.458c0-5.992,4.194-26.664,25.766-26.664c17.826,0,21.421,17.227,21.421,22.62
		s-3.146,16.178-17.227,16.178c-10.036,0-10.386-7.889-10.386-11.484c0-3.595,2.347-6.492,6.991-6.492
		c4.644,0,5.342,4.345,5.342,4.345s0.149,2.697-1.797,3.595c0,0,7.64,0.45,7.19-7.191c-0.516-8.774-7.789-9.437-10.935-9.437
		c-3.146,0-14.348,2.3-13.183,14.98c0.799,8.688,6.891,13.032,6.891,13.032c-19.074-4.744-37.65-41.295-60.219-39.248
		c-12.98,1.177-17.377,8.089-17.377,13.182c0,5.093,4.044,10.336,10.486,10.336c2.247,0,4.494-1.349,7.041-1.349
		c2.547,0,4.344,1.948,4.344,3.745c0,1.798-0.449,5.393-8.688,3.296c0,0,2.1,3.284,5.842,3.146c4.045-0.15,5.992-3.146,6.143-6.891
		c0.209-5.248-5.131-10.266-11.235-9.587c-8.089,0.898-9.288-1.048-9.288-4.644c0-3.596,3.446-8.239,13.482-8.239
		c26.066,0,40.196,42.892,70.106,40.596c15.385-1.181,20.522-13.282,20.074-23.519c-0.335-7.632-5.992-24.517-25.616-24.517
		c-19.624,0-28.761,16.428-28.761,31.258c0,14.83,11.235,33.855,36.401,33.855c36.251,0,52.729-58.872,75.949-58.872
		c0,0-16.478,4.793-16.478,28.313c0,20.772,13.583,25.466,20.523,24.717c3.573-0.386,10.935-2.397,10.935-11.984
		c0-7.64-7.19-7.939-8.688-7.939c-1.498,0-6.837,0.807-5.992,6.891c0.499,3.595,3.595,3.595,3.595,3.595s-2.197-4.694,2.197-4.694
		c3.146,0,3.994,1.398,3.994,3.496c0,2.096-0.798,6.891-8.139,6.891s-14.98-8.539-14.98-21.422s7.34-25.616,18.576-25.616
		c11.235,0,12.133,7.79,12.133,11.085s-1.798,9.737-8.389,9.737c-4.994,0-5.692-3.146-5.692-4.494
		C346.734,170.945,347.483,170.745,347.632,171.445L347.632,171.445z"/>
</g>
</svg>
